<?xml version="1.0" standalone="no"?>
<!DOCTYPE svg PUBLIC "-//W3C//DTD SVG 20010904//EN"
 "http://www.w3.org/TR/2001/REC-SVG-20010904/DTD/svg10.dtd">
<svg version="1.0" xmlns="http://www.w3.org/2000/svg"
 width="180.000000pt" height="180.000000pt" viewBox="0 0 180.000000 180.000000"
 preserveAspectRatio="xMidYMid meet">
<metadata>
Created by potrace 1.11, written by Peter Selinger 2001-2013
</metadata>
<g transform="translate(0.000000,180.000000) scale(0.100000,-0.100000)"
fill="#000000" stroke="none">
<path d="M92 1263 c4 -515 3 -504 83 -668 52 -108 100 -175 197 -273 118 -120
268 -223 401 -277 33 -14 70 -25 81 -25 34 0 165 62 256 122 299 194 471 452
500 746 5 53 10 262 10 465 l0 367 -765 0 -766 0 3 -457z m219 337 c5 0 9 -38
9 -83 0 -80 -1 -84 -25 -95 -14 -7 -37 -12 -50 -12 -25 0 -25 1 -25 85 0 82 1
85 28 99 15 9 33 13 40 11 8 -3 18 -5 23 -5z m112 -7 c14 -5 17 -18 17 -94 0
-99 -2 -101 -69 -78 l-31 11 0 78 c0 65 3 81 18 89 9 6 24 8 32 5 8 -4 23 -9
33 -11z m337 6 c0 -8 12 -10 33 -6 37 6 50 0 60 -25 3 -9 18 -18 34 -20 21 -2
29 -9 31 -28 2 -14 15 -35 29 -46 14 -12 22 -27 19 -33 -5 -7 -23 9 -48 40
-52 67 -109 93 -187 86 -31 -2 -64 -8 -75 -12 -14 -6 -17 -4 -14 11 2 14 12
19 35 19 18 0 38 6 44 13 16 15 39 16 39 1z m581 1 c5 0 9 -38 9 -83 0 -80 -1
-84 -25 -95 -14 -7 -37 -12 -50 -12 -25 0 -25 1 -25 85 0 82 1 85 28 99 15 9
33 13 40 11 8 -3 18 -5 23 -5z m112 -7 c14 -5 17 -18 17 -94 0 -88 0 -89 -25
-89 -13 0 -36 5 -50 12 -24 11 -25 15 -25 94 0 70 3 83 18 87 9 3 24 2 32 0 8
-3 23 -8 33 -10z m-318 -240 c-39 -59 -124 -59 -245 2 -56 28 -103 45 -125 45
-32 0 -35 2 -26 19 8 14 7 22 -4 31 -8 7 -15 16 -15 21 0 15 30 10 36 -6 4
-10 14 -13 29 -9 15 4 24 0 29 -11 3 -10 12 -15 21 -11 8 3 18 -1 22 -8 11
-18 53 -39 61 -31 11 11 -59 62 -103 76 -22 7 -45 17 -52 22 -6 4 -32 5 -56 2
-39 -6 -45 -5 -50 14 -3 12 -1 23 3 26 22 14 104 16 146 5 39 -11 56 -25 111
-92 73 -88 87 -98 137 -98 47 0 75 37 57 76 -9 21 -17 25 -44 23 -24 -3 -31 0
-29 11 5 22 23 40 38 40 9 0 14 11 14 29 0 20 8 35 23 46 l22 15 8 -106 c6
-90 5 -111 -8 -131z m-935 132 l0 -95 51 0 c28 0 60 -5 72 -11 16 -9 22 -9 25
0 2 6 26 11 58 11 l54 0 0 95 c0 52 3 95 6 95 12 0 33 -34 34 -52 0 -10 -4
-18 -10 -18 -14 0 -12 -64 2 -78 10 -10 10 -17 0 -32 -6 -11 -12 -27 -12 -35
0 -13 -22 -15 -145 -15 -170 0 -162 -6 -159 120 2 106 3 110 14 110 6 0 10
-38 10 -95z m1030 0 l0 -95 53 0 c29 0 58 -5 65 -12 9 -9 15 -9 24 0 7 7 36
12 65 12 l53 0 0 95 c0 52 3 95 6 95 12 0 33 -34 34 -52 0 -10 -4 -18 -10 -18
-15 0 -12 -77 3 -83 10 -3 10 -9 0 -26 -7 -11 -13 -28 -13 -36 0 -13 -22 -15
-148 -15 l-147 0 -11 35 c-6 20 -7 38 -3 41 12 7 11 78 -1 90 -11 11 8 64 23
64 4 0 7 -43 7 -95z m-602 39 c7 -14 9 -36 6 -50 -6 -23 -5 -24 20 -13 22 10
29 9 46 -6 25 -23 25 -32 0 -40 -20 -6 -28 -35 -10 -35 35 0 -39 -55 -87 -65
-25 -6 -26 -5 -8 6 55 32 65 41 60 50 -4 5 -17 1 -32 -11 -14 -11 -36 -20 -49
-20 -27 0 -29 3 -12 30 9 15 9 24 -1 43 -11 21 -10 31 14 81 14 31 30 56 34
56 4 0 13 -12 19 -26z m192 -345 c-14 -11 -65 -60 -115 -108 -368 -356 -487
-464 -496 -450 -19 30 -59 167 -69 234 -5 39 -10 132 -10 208 l0 137 358 0
357 -1 -25 -20z m747 -166 c-4 -152 -9 -202 -26 -262 -18 -61 -44 -125 -56
-139 -2 -2 -50 41 -106 95 -57 54 -153 145 -214 203 -60 58 -153 147 -205 197
l-95 93 354 0 353 0 -5 -187z m-629 28 c43 -30 68 -98 53 -144 -35 -104 -169
-137 -243 -60 -52 54 -58 116 -17 174 43 61 144 75 207 30z m-359 -289 c78
-39 99 -128 47 -196 -53 -70 -151 -73 -218 -6 -32 32 -38 44 -38 80 0 106 113
172 209 122z m682 -5 c72 -47 86 -134 33 -197 -66 -78 -204 -56 -244 40 -47
114 105 228 211 157z m-47 -403 l36 -42 -60 -49 c-76 -62 -200 -137 -278 -169
l-61 -24 -53 20 c-72 27 -204 107 -284 171 l-65 53 63 65 c35 36 125 129 201
207 l138 141 163 -166 c90 -91 179 -185 200 -207z"/>
<path d="M612 1428 c-17 -17 -15 -38 3 -38 8 0 15 4 15 9 0 5 3 16 6 25 7 19
-7 21 -24 4z"/>
</g>
</svg>
